<svg xmlns="http://www.w3.org/2000/svg" viewBox="0 0 1180 900" width="1180" height="900" role="img" aria-label="VOX mesh: announce, verify, whois, classify, heartbeat"><rect width="1180" height="900" fill="#fdfcf8"/><text x="60" y="56" font-family="'Segoe UI', 'Helvetica Neue', Inter, system-ui, sans-serif" font-size="25" fill="#2c3038" text-anchor="start" font-weight="600" font-style="normal" letter-spacing="0">How VOX agents find each other</text><text x="60" y="82" font-family="'Segoe UI', 'Helvetica Neue', Inter, system-ui, sans-serif" font-size="15" fill="#6b7280" text-anchor="start" font-weight="400" font-style="normal" letter-spacing="0">Nothing leaves the local network segment, and nothing is announced until you press F3.</text><rect x="60" y="112" width="330" height="92" rx="10" fill="#f3f1ea" stroke="none"/><path d="M70.9 112.3 Q227.1 110.2 380.7 112.9" fill="none" stroke="#2c3038" stroke-width="1.8" stroke-linecap="round"/><path d="M70.1 113.2 Q224.9 112.9 380.3 111.9" fill="none" stroke="#2c3038" stroke-width="1.8" stroke-linecap="round"/><path d="M390.6 123.0 Q390.6 158.9 391.4 193.2" fill="none" stroke="#2c3038" stroke-width="1.8" stroke-linecap="round"/><path d="M389.1 123.3 Q391.9 157.3 388.8 195.4" fill="none" stroke="#2c3038" stroke-width="1.8" stroke-linecap="round"/><path d="M379.7 203.9 Q224.2 205.2 70.3 204.6" fill="none" stroke="#2c3038" stroke-width="1.8" stroke-linecap="round"/><path d="M379.3 205.0 Q222.9 202.5 70.6 203.6" fill="none" stroke="#2c3038" stroke-width="1.8" stroke-linecap="round"/><path d="M60.2 194.3 Q58.7 159.8 59.7 122.5" fill="none" stroke="#2c3038" stroke-width="1.8" stroke-linecap="round"/><path d="M58.7 193.2 Q58.1 158.3 61.2 122.3" fill="none" stroke="#2c3038" stroke-width="1.8" stroke-linecap="round"/><path d="M60.0 122.0 A10 10 0 0 1 70.0 112.0" fill="none" stroke="#2c3038" stroke-width="1.8" stroke-linecap="round"/><path d="M380.0 112.0 A10 10 0 0 1 390.0 122.0" fill="none" stroke="#2c3038" stroke-width="1.8" stroke-linecap="round"/><path d="M390.0 194.0 A10 10 0 0 1 380.0 204.0" fill="none" stroke="#2c3038" stroke-width="1.8" stroke-linecap="round"/><path d="M70.0 204.0 A10 10 0 0 1 60.0 194.0" fill="none" stroke="#2c3038" stroke-width="1.8" stroke-linecap="round"/><text x="84" y="145" font-family="'Segoe UI', 'Helvetica Neue', Inter, system-ui, sans-serif" font-size="18" fill="#2c3038" text-anchor="start" font-weight="600" font-style="normal" letter-spacing="0">VOX</text><text x="134" y="145" font-family="'Segoe UI', 'Helvetica Neue', Inter, system-ui, sans-serif" font-size="13" fill="#b07d2b" text-anchor="start" font-weight="600" font-style="normal" letter-spacing="0.6">PROCESSOR</text><text x="84" y="172" font-family="'JetBrains Mono', 'SF Mono', Consolas, monospace" font-size="13" fill="#6b7280" text-anchor="start" font-weight="400" font-style="normal" letter-spacing="0">vox-b6ffa342e0d3</text><text x="84" y="191" font-family="'JetBrains Mono', 'SF Mono', Consolas, monospace" font-size="13" fill="#6b7280" text-anchor="start" font-weight="400" font-style="normal" letter-spacing="0">verbs: infer</text><rect x="790" y="112" width="330" height="92" rx="10" fill="#f3f1ea" stroke="none"/><path d="M800.2 111.3 Q953.5 110.5 1110.2 112.0" fill="none" stroke="#2c3038" stroke-width="1.8" stroke-linecap="round"/><path d="M799.4 111.0 Q953.1 112.7 1109.0 112.9" fill="none" stroke="#2c3038" stroke-width="1.8" stroke-linecap="round"/><path d="M1119.4 122.7 Q1119.9 157.4 1118.8 193.4" fill="none" stroke="#2c3038" stroke-width="1.8" stroke-linecap="round"/><path d="M1120.6 121.9 Q1118.8 155.8 1121.0 193.9" fill="none" stroke="#2c3038" stroke-width="1.8" stroke-linecap="round"/><path d="M1110.2 202.6 Q954.5 202.8 800.2 204.0" fill="none" stroke="#2c3038" stroke-width="1.8" stroke-linecap="round"/><path d="M1108.6 203.3 Q953.3 204.9 799.5 203.6" fill="none" stroke="#2c3038" stroke-width="1.8" stroke-linecap="round"/><path d="M788.9 193.2 Q792.1 156.9 788.8 122.1" fill="none" stroke="#2c3038" stroke-width="1.8" stroke-linecap="round"/><path d="M790.3 195.0 Q790.9 159.8 790.8 121.5" fill="none" stroke="#2c3038" stroke-width="1.8" stroke-linecap="round"/><path d="M790.0 122.0 A10 10 0 0 1 800.0 112.0" fill="none" stroke="#2c3038" stroke-width="1.8" stroke-linecap="round"/><path d="M1110.0 112.0 A10 10 0 0 1 1120.0 122.0" fill="none" stroke="#2c3038" stroke-width="1.8" stroke-linecap="round"/><path d="M1120.0 194.0 A10 10 0 0 1 1110.0 204.0" fill="none" stroke="#2c3038" stroke-width="1.8" stroke-linecap="round"/><path d="M800.0 204.0 A10 10 0 0 1 790.0 194.0" fill="none" stroke="#2c3038" stroke-width="1.8" stroke-linecap="round"/><text x="814" y="145" font-family="'Segoe UI', 'Helvetica Neue', Inter, system-ui, sans-serif" font-size="18" fill="#2c3038" text-anchor="start" font-weight="600" font-style="normal" letter-spacing="0">ingestor-01</text><text x="922" y="145" font-family="'Segoe UI', 'Helvetica Neue', Inter, system-ui, sans-serif" font-size="13" fill="#5f7a5f" text-anchor="start" font-weight="600" font-style="normal" letter-spacing="0.6">SOURCE</text><text x="814" y="172" font-family="'JetBrains Mono', 'SF Mono', Consolas, monospace" font-size="13" fill="#6b7280" text-anchor="start" font-weight="400" font-style="normal" letter-spacing="0">issued by the same CA</text><text x="814" y="191" font-family="'JetBrains Mono', 'SF Mono', Consolas, monospace" font-size="13" fill="#6b7280" text-anchor="start" font-weight="400" font-style="normal" letter-spacing="0">verbs: ingest</text><path d="M225.1 208.4 Q224.9 238.4 224.7 268.8" fill="none" stroke="#4a6fa5" stroke-width="1.8" stroke-linecap="round"/><path d="M224.0 208.5 Q225.9 237.5 224.7 267.9" fill="none" stroke="#4a6fa5" stroke-width="1.8" stroke-linecap="round"/><path d="M225.0 268.0 L219.3 256.3" fill="none" stroke="#4a6fa5" stroke-width="1.8" stroke-linecap="round"/><path d="M225.0 268.0 L230.7 256.3" fill="none" stroke="#4a6fa5" stroke-width="1.8" stroke-linecap="round"/><path d="M954.0 206.6 Q953.9 237.4 956.3 267.4" fill="none" stroke="#4a6fa5" stroke-width="1.8" stroke-linecap="round"/><path d="M954.2 208.1 Q954.5 236.1 955.3 268.5" fill="none" stroke="#4a6fa5" stroke-width="1.8" stroke-linecap="round"/><path d="M955.0 268.0 L949.3 256.3" fill="none" stroke="#4a6fa5" stroke-width="1.8" stroke-linecap="round"/><path d="M955.0 268.0 L960.7 256.3" fill="none" stroke="#4a6fa5" stroke-width="1.8" stroke-linecap="round"/><rect x="60" y="272" width="1060" height="96" rx="10" fill="#eef2f8" stroke="none"/><path d="M69.7 272.6 Q589.2 270.1 1111.4 271.5" fill="none" stroke="#4a6fa5" stroke-width="1.8" stroke-linecap="round"/><path d="M69.6 273.1 Q590.5 270.9 1110.7 272.2" fill="none" stroke="#4a6fa5" stroke-width="1.8" stroke-linecap="round"/><path d="M1119.6 282.5 Q1122.2 317.8 1119.8 358.3" fill="none" stroke="#4a6fa5" stroke-width="1.8" stroke-linecap="round"/><path d="M1118.7 281.9 Q1121.0 318.5 1119.1 356.7" fill="none" stroke="#4a6fa5" stroke-width="1.8" stroke-linecap="round"/><path d="M1111.0 367.2 Q592.1 367.5 70.6 369.0" fill="none" stroke="#4a6fa5" stroke-width="1.8" stroke-linecap="round"/><path d="M1109.0 366.9 Q588.0 369.0 70.9 367.8" fill="none" stroke="#4a6fa5" stroke-width="1.8" stroke-linecap="round"/><path d="M60.1 357.1 Q60.9 318.4 60.7 281.9" fill="none" stroke="#4a6fa5" stroke-width="1.8" stroke-linecap="round"/><path d="M60.2 357.4 Q61.7 320.5 59.7 281.1" fill="none" stroke="#4a6fa5" stroke-width="1.8" stroke-linecap="round"/><path d="M60.0 282.0 A10 10 0 0 1 70.0 272.0" fill="none" stroke="#4a6fa5" stroke-width="1.8" stroke-linecap="round"/><path d="M1110.0 272.0 A10 10 0 0 1 1120.0 282.0" fill="none" stroke="#4a6fa5" stroke-width="1.8" stroke-linecap="round"/><path d="M1120.0 358.0 A10 10 0 0 1 1110.0 368.0" fill="none" stroke="#4a6fa5" stroke-width="1.8" stroke-linecap="round"/><path d="M70.0 368.0 A10 10 0 0 1 60.0 358.0" fill="none" stroke="#4a6fa5" stroke-width="1.8" stroke-linecap="round"/><circle cx="96" cy="300" r="13" fill="#4a6fa5"/><text x="96" y="305" font-family="'Segoe UI', 'Helvetica Neue', Inter, system-ui, sans-serif" font-size="14" fill="#fdfcf8" text-anchor="middle" font-weight="600" font-style="normal" letter-spacing="0">1</text><text x="120" y="306" font-family="'Segoe UI', 'Helvetica Neue', Inter, system-ui, sans-serif" font-size="16" fill="#4a6fa5" text-anchor="start" font-weight="600" font-style="normal" letter-spacing="0.4">ANNOUNCE</text><text x="258" y="305" font-family="'JetBrains Mono', 'SF Mono', Consolas, monospace" font-size="13" fill="#4a6fa5" text-anchor="start" font-weight="400" font-style="normal" letter-spacing="0">UDP multicast  239.17.42.1:45177  ·  TTL 1  ·  every 60s</text><text x="96" y="336" font-family="'JetBrains Mono', 'SF Mono', Consolas, monospace" font-size="13" fill="#6b7280" text-anchor="start" font-weight="400" font-style="normal" letter-spacing="0">{ agent_id, incarnation, whois_port, caps_digest, ts, nonce }  +  Ed25519 signature  +  the sender's certificate</text><text x="96" y="358" font-family="'Segoe UI', 'Helvetica Neue', Inter, system-ui, sans-serif" font-size="13" fill="#6b7280" text-anchor="start" font-weight="400" font-style="normal" letter-spacing="0">Each agent signs with its own key. There is no shared secret; TTL 1 keeps the packet on this segment.</text><path d="M299.3 373.0 Q299.6 398.6 300.0 423.5" fill="none" stroke="#2c3038" stroke-width="1.8" stroke-linecap="round"/><path d="M300.0 372.7 Q299.8 397.8 301.1 424.2" fill="none" stroke="#2c3038" stroke-width="1.8" stroke-linecap="round"/><path d="M300.0 424.0 L294.3 412.3" fill="none" stroke="#2c3038" stroke-width="1.8" stroke-linecap="round"/><path d="M300.0 424.0 L305.7 412.3" fill="none" stroke="#2c3038" stroke-width="1.8" stroke-linecap="round"/><rect x="60" y="428" width="500" height="176" rx="10" fill="#f7f6f1" stroke="none"/><path d="M70.1 427.3 Q309.9 426.7 550.8 427.8" fill="none" stroke="#2c3038" stroke-width="1.8" stroke-linecap="round"/><path d="M69.1 428.5 Q311.9 426.9 550.8 426.9" fill="none" stroke="#2c3038" stroke-width="1.8" stroke-linecap="round"/><path d="M561.2 436.9 Q561.6 513.8 559.3 593.0" fill="none" stroke="#2c3038" stroke-width="1.8" stroke-linecap="round"/><path d="M560.1 437.9 Q558.2 517.4 561.2 593.1" fill="none" stroke="#2c3038" stroke-width="1.8" stroke-linecap="round"/><path d="M550.7 604.9 Q312.0 602.9 70.5 604.8" fill="none" stroke="#2c3038" stroke-width="1.8" stroke-linecap="round"/><path d="M550.3 604.9 Q308.3 605.3 69.2 604.2" fill="none" stroke="#2c3038" stroke-width="1.8" stroke-linecap="round"/><path d="M59.2 592.7 Q58.6 515.0 59.6 438.4" fill="none" stroke="#2c3038" stroke-width="1.8" stroke-linecap="round"/><path d="M58.8 594.4 Q59.2 515.8 60.9 438.6" fill="none" stroke="#2c3038" stroke-width="1.8" stroke-linecap="round"/><path d="M60.0 438.0 A10 10 0 0 1 70.0 428.0" fill="none" stroke="#2c3038" stroke-width="1.8" stroke-linecap="round"/><path d="M550.0 428.0 A10 10 0 0 1 560.0 438.0" fill="none" stroke="#2c3038" stroke-width="1.8" stroke-linecap="round"/><path d="M560.0 594.0 A10 10 0 0 1 550.0 604.0" fill="none" stroke="#2c3038" stroke-width="1.8" stroke-linecap="round"/><path d="M70.0 604.0 A10 10 0 0 1 60.0 594.0" fill="none" stroke="#2c3038" stroke-width="1.8" stroke-linecap="round"/><circle cx="96" cy="456" r="13" fill="#2c3038"/><text x="96" y="461" font-family="'Segoe UI', 'Helvetica Neue', Inter, system-ui, sans-serif" font-size="14" fill="#fdfcf8" text-anchor="middle" font-weight="600" font-style="normal" letter-spacing="0">2</text><text x="120" y="462" font-family="'Segoe UI', 'Helvetica Neue', Inter, system-ui, sans-serif" font-size="16" fill="#2c3038" text-anchor="start" font-weight="600" font-style="normal" letter-spacing="0.4">VERIFY  ·  every packet, in order</text><circle cx="102" cy="487" r="3.5" fill="#bd6a48"/><text x="118" y="492" font-family="'Segoe UI', 'Helvetica Neue', Inter, system-ui, sans-serif" font-size="14" fill="#2c3038" text-anchor="start" font-weight="400" font-style="normal" letter-spacing="0">certificate signed by our CA</text><circle cx="102" cy="513" r="3.5" fill="#bd6a48"/><text x="118" y="518" font-family="'Segoe UI', 'Helvetica Neue', Inter, system-ui, sans-serif" font-size="14" fill="#2c3038" text-anchor="start" font-weight="400" font-style="normal" letter-spacing="0">announced id is a SAN of that certificate</text><circle cx="102" cy="539" r="3.5" fill="#bd6a48"/><text x="118" y="544" font-family="'Segoe UI', 'Helvetica Neue', Inter, system-ui, sans-serif" font-size="14" fill="#2c3038" text-anchor="start" font-weight="400" font-style="normal" letter-spacing="0">signature matches the body</text><circle cx="102" cy="565" r="3.5" fill="#bd6a48"/><text x="118" y="570" font-family="'Segoe UI', 'Helvetica Neue', Inter, system-ui, sans-serif" font-size="14" fill="#2c3038" text-anchor="start" font-weight="400" font-style="normal" letter-spacing="0">timestamp in window, nonce unseen</text><text x="96" y="594" font-family="'Segoe UI', 'Helvetica Neue', Inter, system-ui, sans-serif" font-size="13" fill="#6b7280" text-anchor="start" font-weight="400" font-style="italic" letter-spacing="0">A stranger's packet stops here, before the registry.</text><path d="M560.8 498.7 Q590.0 500.3 617.1 500.0" fill="none" stroke="#2c3038" stroke-width="1.8" stroke-linecap="round"/><path d="M559.2 500.3 Q588.9 500.2 617.9 500.0" fill="none" stroke="#2c3038" stroke-width="1.8" stroke-linecap="round"/><path d="M618.0 500.0 L606.3 505.7" fill="none" stroke="#2c3038" stroke-width="1.8" stroke-linecap="round"/><path d="M618.0 500.0 L606.3 494.3" fill="none" stroke="#2c3038" stroke-width="1.8" stroke-linecap="round"/><rect x="620" y="428" width="500" height="176" rx="10" fill="#f7f6f1" stroke="none"/><path d="M629.0 427.3 Q869.0 426.7 1110.8 428.8" fill="none" stroke="#2c3038" stroke-width="1.8" stroke-linecap="round"/><path d="M630.6 428.9 Q870.8 430.2 1108.9 427.5" fill="none" stroke="#2c3038" stroke-width="1.8" stroke-linecap="round"/><path d="M1119.3 439.2 Q1120.5 516.3 1119.7 593.6" fill="none" stroke="#2c3038" stroke-width="1.8" stroke-linecap="round"/><path d="M1120.3 437.8 Q1119.1 517.5 1120.5 595.2" fill="none" stroke="#2c3038" stroke-width="1.8" stroke-linecap="round"/><path d="M1110.6 605.3 Q869.5 602.9 629.2 603.1" fill="none" stroke="#2c3038" stroke-width="1.8" stroke-linecap="round"/><path d="M1109.1 603.8 Q868.6 605.4 630.7 605.1" fill="none" stroke="#2c3038" stroke-width="1.8" stroke-linecap="round"/><path d="M619.4 593.3 Q620.1 515.1 619.4 436.8" fill="none" stroke="#2c3038" stroke-width="1.8" stroke-linecap="round"/><path d="M619.3 593.8 Q621.5 516.8 620.3 438.1" fill="none" stroke="#2c3038" stroke-width="1.8" stroke-linecap="round"/><path d="M620.0 438.0 A10 10 0 0 1 630.0 428.0" fill="none" stroke="#2c3038" stroke-width="1.8" stroke-linecap="round"/><path d="M1110.0 428.0 A10 10 0 0 1 1120.0 438.0" fill="none" stroke="#2c3038" stroke-width="1.8" stroke-linecap="round"/><path d="M1120.0 594.0 A10 10 0 0 1 1110.0 604.0" fill="none" stroke="#2c3038" stroke-width="1.8" stroke-linecap="round"/><path d="M630.0 604.0 A10 10 0 0 1 620.0 594.0" fill="none" stroke="#2c3038" stroke-width="1.8" stroke-linecap="round"/><circle cx="656" cy="456" r="13" fill="#2c3038"/><text x="656" y="461" font-family="'Segoe UI', 'Helvetica Neue', Inter, system-ui, sans-serif" font-size="14" fill="#fdfcf8" text-anchor="middle" font-weight="600" font-style="normal" letter-spacing="0">3</text><text x="680" y="462" font-family="'Segoe UI', 'Helvetica Neue', Inter, system-ui, sans-serif" font-size="16" fill="#2c3038" text-anchor="start" font-weight="600" font-style="normal" letter-spacing="0.4">WHOIS  ·  unicast mTLS</text><text x="656" y="492" font-family="'Segoe UI', 'Helvetica Neue', Inter, system-ui, sans-serif" font-size="14" fill="#2c3038" text-anchor="start" font-weight="400" font-style="normal" letter-spacing="0">Only for a peer that is new or has restarted.</text><text x="656" y="520" font-family="'JetBrains Mono', 'SF Mono', Consolas, monospace" font-size="13" fill="#6b7280" text-anchor="start" font-weight="400" font-style="normal" letter-spacing="0">client → is the server's SAN the id it announced?</text><text x="656" y="543" font-family="'JetBrains Mono', 'SF Mono', Consolas, monospace" font-size="13" fill="#6b7280" text-anchor="start" font-weight="400" font-style="normal" letter-spacing="0">server → is this certificate from our CA?</text><text x="656" y="566" font-family="'JetBrains Mono', 'SF Mono', Consolas, monospace" font-size="13" fill="#6b7280" text-anchor="start" font-weight="400" font-style="normal" letter-spacing="0">server → does the authorizer allow this caller?</text><text x="656" y="594" font-family="'Segoe UI', 'Helvetica Neue', Inter, system-ui, sans-serif" font-size="13" fill="#6b7280" text-anchor="start" font-weight="400" font-style="italic" letter-spacing="0">Answer: { name, capabilities: { verbs: [...] } }</text><path d="M870.2 607.0 Q868.7 630.9 871.2 654.6" fill="none" stroke="#2c3038" stroke-width="1.8" stroke-linecap="round"/><path d="M870.3 607.5 Q868.9 633.4 869.9 656.4" fill="none" stroke="#2c3038" stroke-width="1.8" stroke-linecap="round"/><path d="M870.0 656.0 L864.3 644.3" fill="none" stroke="#2c3038" stroke-width="1.8" stroke-linecap="round"/><path d="M870.0 656.0 L875.7 644.3" fill="none" stroke="#2c3038" stroke-width="1.8" stroke-linecap="round"/><rect x="620" y="660" width="500" height="196" rx="10" fill="#faf6ec" stroke="none"/><path d="M629.6 659.3 Q872.0 659.5 1110.1 659.5" fill="none" stroke="#b07d2b" stroke-width="1.8" stroke-linecap="round"/><path d="M630.3 661.0 Q870.8 658.6 1109.7 660.8" fill="none" stroke="#b07d2b" stroke-width="1.8" stroke-linecap="round"/><path d="M1118.9 670.6 Q1118.0 756.5 1118.7 845.2" fill="none" stroke="#b07d2b" stroke-width="1.8" stroke-linecap="round"/><path d="M1118.7 669.5 Q1118.5 757.3 1119.4 845.3" fill="none" stroke="#b07d2b" stroke-width="1.8" stroke-linecap="round"/><path d="M1111.2 855.7 Q868.8 857.6 630.0 856.9" fill="none" stroke="#b07d2b" stroke-width="1.8" stroke-linecap="round"/><path d="M1109.4 856.3 Q867.9 855.7 631.3 857.1" fill="none" stroke="#b07d2b" stroke-width="1.8" stroke-linecap="round"/><path d="M621.2 844.8 Q619.9 757.0 619.7 670.5" fill="none" stroke="#b07d2b" stroke-width="1.8" stroke-linecap="round"/><path d="M619.9 846.7 Q621.5 756.1 618.8 669.6" fill="none" stroke="#b07d2b" stroke-width="1.8" stroke-linecap="round"/><path d="M620.0 670.0 A10 10 0 0 1 630.0 660.0" fill="none" stroke="#b07d2b" stroke-width="1.8" stroke-linecap="round"/><path d="M1110.0 660.0 A10 10 0 0 1 1120.0 670.0" fill="none" stroke="#b07d2b" stroke-width="1.8" stroke-linecap="round"/><path d="M1120.0 846.0 A10 10 0 0 1 1110.0 856.0" fill="none" stroke="#b07d2b" stroke-width="1.8" stroke-linecap="round"/><path d="M630.0 856.0 A10 10 0 0 1 620.0 846.0" fill="none" stroke="#b07d2b" stroke-width="1.8" stroke-linecap="round"/><circle cx="656" cy="688" r="13" fill="#b07d2b"/><text x="656" y="693" font-family="'Segoe UI', 'Helvetica Neue', Inter, system-ui, sans-serif" font-size="14" fill="#fdfcf8" text-anchor="middle" font-weight="600" font-style="normal" letter-spacing="0">4</text><text x="680" y="694" font-family="'Segoe UI', 'Helvetica Neue', Inter, system-ui, sans-serif" font-size="16" fill="#b07d2b" text-anchor="start" font-weight="600" font-style="normal" letter-spacing="0.4">CLASSIFY  ·  from the declared verbs</text><text x="656" y="722" font-family="'JetBrains Mono', 'SF Mono', Consolas, monospace" font-size="13" fill="#2c3038" text-anchor="start" font-weight="400" font-style="normal" letter-spacing="0">ingest, publish</text><text x="880" y="722" font-family="'Segoe UI', 'Helvetica Neue', Inter, system-ui, sans-serif" font-size="13" fill="#6b7280" text-anchor="start" font-weight="400" font-style="normal" letter-spacing="0">→</text><text x="906" y="722" font-family="'Segoe UI', 'Helvetica Neue', Inter, system-ui, sans-serif" font-size="13" fill="#5f7a5f" text-anchor="start" font-weight="600" font-style="normal" letter-spacing="0">SOURCE</text><text x="656" y="748" font-family="'JetBrains Mono', 'SF Mono', Consolas, monospace" font-size="13" fill="#2c3038" text-anchor="start" font-weight="400" font-style="normal" letter-spacing="0">transform, enrich, infer</text><text x="880" y="748" font-family="'Segoe UI', 'Helvetica Neue', Inter, system-ui, sans-serif" font-size="13" fill="#6b7280" text-anchor="start" font-weight="400" font-style="normal" letter-spacing="0">→</text><text x="906" y="748" font-family="'Segoe UI', 'Helvetica Neue', Inter, system-ui, sans-serif" font-size="13" fill="#b07d2b" text-anchor="start" font-weight="600" font-style="normal" letter-spacing="0">PROCESSOR</text><text x="656" y="774" font-family="'JetBrains Mono', 'SF Mono', Consolas, monospace" font-size="13" fill="#2c3038" text-anchor="start" font-weight="400" font-style="normal" letter-spacing="0">store, index, notify</text><text x="880" y="774" font-family="'Segoe UI', 'Helvetica Neue', Inter, system-ui, sans-serif" font-size="13" fill="#6b7280" text-anchor="start" font-weight="400" font-style="normal" letter-spacing="0">→</text><text x="906" y="774" font-family="'Segoe UI', 'Helvetica Neue', Inter, system-ui, sans-serif" font-size="13" fill="#4a6fa5" text-anchor="start" font-weight="600" font-style="normal" letter-spacing="0">SINK</text><text x="656" y="800" font-family="'JetBrains Mono', 'SF Mono', Consolas, monospace" font-size="13" fill="#2c3038" text-anchor="start" font-weight="400" font-style="normal" letter-spacing="0">schedule, dispatch</text><text x="880" y="800" font-family="'Segoe UI', 'Helvetica Neue', Inter, system-ui, sans-serif" font-size="13" fill="#6b7280" text-anchor="start" font-weight="400" font-style="normal" letter-spacing="0">→</text><text x="906" y="800" font-family="'Segoe UI', 'Helvetica Neue', Inter, system-ui, sans-serif" font-size="13" fill="#bd6a48" text-anchor="start" font-weight="600" font-style="normal" letter-spacing="0">ORCHESTRATOR</text><text x="656" y="826" font-family="'JetBrains Mono', 'SF Mono', Consolas, monospace" font-size="13" fill="#2c3038" text-anchor="start" font-weight="400" font-style="normal" letter-spacing="0">observe, audit</text><text x="880" y="826" font-family="'Segoe UI', 'Helvetica Neue', Inter, system-ui, sans-serif" font-size="13" fill="#6b7280" text-anchor="start" font-weight="400" font-style="normal" letter-spacing="0">→</text><text x="906" y="826" font-family="'Segoe UI', 'Helvetica Neue', Inter, system-ui, sans-serif" font-size="13" fill="#6b7280" text-anchor="start" font-weight="600" font-style="normal" letter-spacing="0">OBSERVER</text><text x="1010" y="826" font-family="'Segoe UI', 'Helvetica Neue', Inter, system-ui, sans-serif" font-size="12" fill="#6b7280" text-anchor="start" font-weight="400" font-style="italic" letter-spacing="0">never routed work</text><path d="M299.2 607.7 Q299.1 630.0 300.4 655.2" fill="none" stroke="#2c3038" stroke-width="1.8" stroke-linecap="round"/><path d="M299.2 608.8 Q300.5 631.7 298.9 656.8" fill="none" stroke="#2c3038" stroke-width="1.8" stroke-linecap="round"/><path d="M300.0 656.0 L294.3 644.3" fill="none" stroke="#2c3038" stroke-width="1.8" stroke-linecap="round"/><path d="M300.0 656.0 L305.7 644.3" fill="none" stroke="#2c3038" stroke-width="1.8" stroke-linecap="round"/><path d="M619.2 698.8 Q592.1 697.8 563.7 700.0" fill="none" stroke="#6b7280" stroke-width="1.5" stroke-linecap="round" stroke-dasharray="6 5"/><path d="M618.0 699.6 Q592.8 698.6 563.8 698.9" fill="none" stroke="#6b7280" stroke-width="1.5" stroke-linecap="round" stroke-dasharray="6 5"/><path d="M564.0 700.0 L575.7 694.3" fill="none" stroke="#6b7280" stroke-width="1.5" stroke-linecap="round"/><path d="M564.0 700.0 L575.7 705.7" fill="none" stroke="#6b7280" stroke-width="1.5" stroke-linecap="round"/><rect x="60" y="660" width="500" height="196" rx="10" fill="#f1f5f0" stroke="none"/><path d="M70.4 658.6 Q310.7 659.0 550.3 660.7" fill="none" stroke="#5f7a5f" stroke-width="1.8" stroke-linecap="round"/><path d="M69.4 659.0 Q309.3 661.3 549.2 658.9" fill="none" stroke="#5f7a5f" stroke-width="1.8" stroke-linecap="round"/><path d="M558.9 669.4 Q558.6 758.8 559.3 847.2" fill="none" stroke="#5f7a5f" stroke-width="1.8" stroke-linecap="round"/><path d="M560.8 668.7 Q559.2 759.3 560.0 846.1" fill="none" stroke="#5f7a5f" stroke-width="1.8" stroke-linecap="round"/><path d="M549.9 855.7 Q312.2 855.3 68.8 855.2" fill="none" stroke="#5f7a5f" stroke-width="1.8" stroke-linecap="round"/><path d="M550.9 856.1 Q307.9 856.7 71.3 857.0" fill="none" stroke="#5f7a5f" stroke-width="1.8" stroke-linecap="round"/><path d="M61.3 845.4 Q61.4 756.3 59.0 669.9" fill="none" stroke="#5f7a5f" stroke-width="1.8" stroke-linecap="round"/><path d="M60.6 845.3 Q60.0 759.4 58.7 670.5" fill="none" stroke="#5f7a5f" stroke-width="1.8" stroke-linecap="round"/><path d="M60.0 670.0 A10 10 0 0 1 70.0 660.0" fill="none" stroke="#5f7a5f" stroke-width="1.8" stroke-linecap="round"/><path d="M550.0 660.0 A10 10 0 0 1 560.0 670.0" fill="none" stroke="#5f7a5f" stroke-width="1.8" stroke-linecap="round"/><path d="M560.0 846.0 A10 10 0 0 1 550.0 856.0" fill="none" stroke="#5f7a5f" stroke-width="1.8" stroke-linecap="round"/><path d="M70.0 856.0 A10 10 0 0 1 60.0 846.0" fill="none" stroke="#5f7a5f" stroke-width="1.8" stroke-linecap="round"/><circle cx="96" cy="688" r="13" fill="#5f7a5f"/><text x="96" y="693" font-family="'Segoe UI', 'Helvetica Neue', Inter, system-ui, sans-serif" font-size="14" fill="#fdfcf8" text-anchor="middle" font-weight="600" font-style="normal" letter-spacing="0">5</text><text x="120" y="694" font-family="'Segoe UI', 'Helvetica Neue', Inter, system-ui, sans-serif" font-size="16" fill="#5f7a5f" text-anchor="start" font-weight="600" font-style="normal" letter-spacing="0.4">HEARTBEAT  ·  the announcement keeps coming</text><text x="96" y="722" font-family="'Segoe UI', 'Helvetica Neue', Inter, system-ui, sans-serif" font-size="13" fill="#6b7280" text-anchor="start" font-weight="400" font-style="normal" letter-spacing="0">The WHOIS is what is skipped for a peer already known.</text><rect x="96" y="748" width="120" height="34" rx="8" fill="#ffffff" stroke="none"/><path d="M104.5 749.3 Q156.3 746.6 208.6 747.4" fill="none" stroke="#b07d2b" stroke-width="1.6" stroke-linecap="round"/><path d="M102.9 747.2 Q155.9 746.4 208.8 746.7" fill="none" stroke="#b07d2b" stroke-width="1.6" stroke-linecap="round"/><path d="M216.1 755.0 Q216.5 764.7 216.0 774.1" fill="none" stroke="#b07d2b" stroke-width="1.6" stroke-linecap="round"/><path d="M216.1 755.9 Q218.2 762.8 217.1 773.6" fill="none" stroke="#b07d2b" stroke-width="1.6" stroke-linecap="round"/><path d="M207.8 783.3 Q157.7 782.7 103.6 783.0" fill="none" stroke="#b07d2b" stroke-width="1.6" stroke-linecap="round"/><path d="M208.8 781.1 Q154.4 783.8 103.6 783.0" fill="none" stroke="#b07d2b" stroke-width="1.6" stroke-linecap="round"/><path d="M95.2 773.3 Q95.9 767.1 97.0 755.5" fill="none" stroke="#b07d2b" stroke-width="1.6" stroke-linecap="round"/><path d="M96.2 775.3 Q95.8 765.8 96.5 755.0" fill="none" stroke="#b07d2b" stroke-width="1.6" stroke-linecap="round"/><path d="M96.0 756.0 A8 8 0 0 1 104.0 748.0" fill="none" stroke="#b07d2b" stroke-width="1.6" stroke-linecap="round"/><path d="M208.0 748.0 A8 8 0 0 1 216.0 756.0" fill="none" stroke="#b07d2b" stroke-width="1.6" stroke-linecap="round"/><path d="M216.0 774.0 A8 8 0 0 1 208.0 782.0" fill="none" stroke="#b07d2b" stroke-width="1.6" stroke-linecap="round"/><path d="M104.0 782.0 A8 8 0 0 1 96.0 774.0" fill="none" stroke="#b07d2b" stroke-width="1.6" stroke-linecap="round"/><text x="156" y="770" font-family="'Segoe UI', 'Helvetica Neue', Inter, system-ui, sans-serif" font-size="13" fill="#b07d2b" text-anchor="middle" font-weight="600" font-style="normal" letter-spacing="0">PROBATION</text><rect x="244" y="748" width="120" height="34" rx="8" fill="#ffffff" stroke="none"/><path d="M251.6 749.1 Q302.4 748.2 356.7 747.6" fill="none" stroke="#5f7a5f" stroke-width="1.6" stroke-linecap="round"/><path d="M252.3 748.3 Q304.1 747.4 357.3 747.3" fill="none" stroke="#5f7a5f" stroke-width="1.6" stroke-linecap="round"/><path d="M363.1 755.5 Q364.2 764.7 364.3 773.5" fill="none" stroke="#5f7a5f" stroke-width="1.6" stroke-linecap="round"/><path d="M363.4 755.8 Q366.1 765.8 364.6 772.8" fill="none" stroke="#5f7a5f" stroke-width="1.6" stroke-linecap="round"/><path d="M357.1 783.1 Q304.7 780.2 251.5 781.5" fill="none" stroke="#5f7a5f" stroke-width="1.6" stroke-linecap="round"/><path d="M356.8 782.8 Q305.2 780.8 252.5 781.2" fill="none" stroke="#5f7a5f" stroke-width="1.6" stroke-linecap="round"/><path d="M245.1 775.0 Q245.3 765.6 245.2 756.8" fill="none" stroke="#5f7a5f" stroke-width="1.6" stroke-linecap="round"/><path d="M242.7 775.1 Q244.7 763.5 244.8 755.8" fill="none" stroke="#5f7a5f" stroke-width="1.6" stroke-linecap="round"/><path d="M244.0 756.0 A8 8 0 0 1 252.0 748.0" fill="none" stroke="#5f7a5f" stroke-width="1.6" stroke-linecap="round"/><path d="M356.0 748.0 A8 8 0 0 1 364.0 756.0" fill="none" stroke="#5f7a5f" stroke-width="1.6" stroke-linecap="round"/><path d="M364.0 774.0 A8 8 0 0 1 356.0 782.0" fill="none" stroke="#5f7a5f" stroke-width="1.6" stroke-linecap="round"/><path d="M252.0 782.0 A8 8 0 0 1 244.0 774.0" fill="none" stroke="#5f7a5f" stroke-width="1.6" stroke-linecap="round"/><text x="304" y="770" font-family="'Segoe UI', 'Helvetica Neue', Inter, system-ui, sans-serif" font-size="13" fill="#5f7a5f" text-anchor="middle" font-weight="600" font-style="normal" letter-spacing="0">ACTIVE</text><rect x="376" y="748" width="120" height="34" rx="8" fill="#ffffff" stroke="none"/><path d="M384.8 748.5 Q437.0 747.3 489.1 747.0" fill="none" stroke="#bd6a48" stroke-width="1.6" stroke-linecap="round"/><path d="M382.9 747.4 Q434.2 749.8 488.4 748.3" fill="none" stroke="#bd6a48" stroke-width="1.6" stroke-linecap="round"/><path d="M496.8 755.4 Q498.2 765.5 496.4 774.9" fill="none" stroke="#bd6a48" stroke-width="1.6" stroke-linecap="round"/><path d="M496.8 756.4 Q496.9 766.4 496.2 772.7" fill="none" stroke="#bd6a48" stroke-width="1.6" stroke-linecap="round"/><path d="M488.9 780.9 Q436.2 780.4 383.0 783.3" fill="none" stroke="#bd6a48" stroke-width="1.6" stroke-linecap="round"/><path d="M488.4 781.8 Q435.1 783.7 383.4 781.9" fill="none" stroke="#bd6a48" stroke-width="1.6" stroke-linecap="round"/><path d="M376.7 774.9 Q374.3 763.2 375.8 755.1" fill="none" stroke="#bd6a48" stroke-width="1.6" stroke-linecap="round"/><path d="M375.0 775.1 Q377.0 765.8 377.0 755.0" fill="none" stroke="#bd6a48" stroke-width="1.6" stroke-linecap="round"/><path d="M376.0 756.0 A8 8 0 0 1 384.0 748.0" fill="none" stroke="#bd6a48" stroke-width="1.6" stroke-linecap="round"/><path d="M488.0 748.0 A8 8 0 0 1 496.0 756.0" fill="none" stroke="#bd6a48" stroke-width="1.6" stroke-linecap="round"/><path d="M496.0 774.0 A8 8 0 0 1 488.0 782.0" fill="none" stroke="#bd6a48" stroke-width="1.6" stroke-linecap="round"/><path d="M384.0 782.0 A8 8 0 0 1 376.0 774.0" fill="none" stroke="#bd6a48" stroke-width="1.6" stroke-linecap="round"/><text x="436" y="770" font-family="'Segoe UI', 'Helvetica Neue', Inter, system-ui, sans-serif" font-size="13" fill="#bd6a48" text-anchor="middle" font-weight="600" font-style="normal" letter-spacing="0">SUSPECT</text><path d="M220.2 766.1 Q230.9 767.1 239.1 764.3" fill="none" stroke="#2c3038" stroke-width="1.5" stroke-linecap="round"/><path d="M219.8 765.4 Q228.1 764.8 240.3 764.4" fill="none" stroke="#2c3038" stroke-width="1.5" stroke-linecap="round"/><path d="M240.0 765.0 L228.3 770.7" fill="none" stroke="#2c3038" stroke-width="1.5" stroke-linecap="round"/><path d="M240.0 765.0 L228.3 759.3" fill="none" stroke="#2c3038" stroke-width="1.5" stroke-linecap="round"/><path d="M367.7 763.8 Q368.5 765.7 372.9 766.1" fill="none" stroke="#2c3038" stroke-width="1.5" stroke-linecap="round"/><path d="M368.7 765.0 Q368.4 763.9 371.9 764.6" fill="none" stroke="#2c3038" stroke-width="1.5" stroke-linecap="round"/><path d="M372.0 765.0 L360.3 770.7" fill="none" stroke="#2c3038" stroke-width="1.5" stroke-linecap="round"/><path d="M372.0 765.0 L360.3 759.3" fill="none" stroke="#2c3038" stroke-width="1.5" stroke-linecap="round"/><text x="172" y="742" font-family="'JetBrains Mono', 'SF Mono', Consolas, monospace" font-size="11" fill="#6b7280" text-anchor="start" font-weight="400" font-style="normal" letter-spacing="0">whois ok</text><text x="316" y="742" font-family="'JetBrains Mono', 'SF Mono', Consolas, monospace" font-size="11" fill="#6b7280" text-anchor="start" font-weight="400" font-style="normal" letter-spacing="0">3 intervals</text><rect x="376" y="806" width="120" height="32" rx="8" fill="#ffffff" stroke="none"/><path d="M382.6 806.7 Q437.3 804.6 488.8 804.6" fill="none" stroke="#6b7280" stroke-width="1.6" stroke-linecap="round"/><path d="M384.7 805.8 Q436.5 806.0 489.1 805.9" fill="none" stroke="#6b7280" stroke-width="1.6" stroke-linecap="round"/><path d="M495.8 814.8 Q497.2 821.0 495.8 828.7" fill="none" stroke="#6b7280" stroke-width="1.6" stroke-linecap="round"/><path d="M497.0 814.4 Q495.4 820.1 497.1 830.1" fill="none" stroke="#6b7280" stroke-width="1.6" stroke-linecap="round"/><path d="M488.7 838.6 Q434.8 836.3 383.6 839.0" fill="none" stroke="#6b7280" stroke-width="1.6" stroke-linecap="round"/><path d="M488.1 839.3 Q434.7 836.5 383.7 836.7" fill="none" stroke="#6b7280" stroke-width="1.6" stroke-linecap="round"/><path d="M374.7 829.6 Q377.3 822.2 374.9 813.2" fill="none" stroke="#6b7280" stroke-width="1.6" stroke-linecap="round"/><path d="M376.2 830.2 Q377.7 820.9 374.8 813.2" fill="none" stroke="#6b7280" stroke-width="1.6" stroke-linecap="round"/><path d="M376.0 814.0 A8 8 0 0 1 384.0 806.0" fill="none" stroke="#6b7280" stroke-width="1.6" stroke-linecap="round"/><path d="M488.0 806.0 A8 8 0 0 1 496.0 814.0" fill="none" stroke="#6b7280" stroke-width="1.6" stroke-linecap="round"/><path d="M496.0 830.0 A8 8 0 0 1 488.0 838.0" fill="none" stroke="#6b7280" stroke-width="1.6" stroke-linecap="round"/><path d="M384.0 838.0 A8 8 0 0 1 376.0 830.0" fill="none" stroke="#6b7280" stroke-width="1.6" stroke-linecap="round"/><text x="436" y="827" font-family="'Segoe UI', 'Helvetica Neue', Inter, system-ui, sans-serif" font-size="13" fill="#6b7280" text-anchor="middle" font-weight="600" font-style="normal" letter-spacing="0">DEAD</text><path d="M436.2 784.7 Q434.7 794.5 434.9 805.3" fill="none" stroke="#6b7280" stroke-width="1.5" stroke-linecap="round"/><path d="M437.4 785.6 Q437.8 795.4 435.9 805.0" fill="none" stroke="#6b7280" stroke-width="1.5" stroke-linecap="round"/><path d="M436.0 804.0 L430.3 792.3" fill="none" stroke="#6b7280" stroke-width="1.5" stroke-linecap="round"/><path d="M436.0 804.0 L441.7 792.3" fill="none" stroke="#6b7280" stroke-width="1.5" stroke-linecap="round"/><text x="446" y="800" font-family="'JetBrains Mono', 'SF Mono', Consolas, monospace" font-size="11" fill="#6b7280" text-anchor="start" font-weight="400" font-style="normal" letter-spacing="0">5 intervals</text><path d="M376.2 799.9 Q340.0 796.1 299.1 790.2" fill="none" stroke="#5f7a5f" stroke-width="1.5" stroke-linecap="round" stroke-dasharray="5 5"/><path d="M375.4 801.0 Q339.1 796.1 301.1 790.8" fill="none" stroke="#5f7a5f" stroke-width="1.5" stroke-linecap="round" stroke-dasharray="5 5"/><path d="M300.0 790.0 L312.3 785.9" fill="none" stroke="#5f7a5f" stroke-width="1.5" stroke-linecap="round"/><path d="M300.0 790.0 L310.8 797.2" fill="none" stroke="#5f7a5f" stroke-width="1.5" stroke-linecap="round"/><text x="96" y="806" font-family="'JetBrains Mono', 'SF Mono', Consolas, monospace" font-size="11" fill="#5f7a5f" text-anchor="start" font-weight="400" font-style="normal" letter-spacing="0">an announcement brings it back</text></svg>